solid MATLAB_1
facet normal -0.520445108 -0.851716876 0.0609528273
  outer loop
   vertex -0.0250000004 -0.992238462 0.322397858
   vertex -0.0433012694 -1.01456702 -0.145872697
   vertex 0.0250000004 -1.03947413 0.0892805606
  endloop
 endfacet
facet normal -0.0685421154 -0.993988574 -0.0853735656
  outer loop
   vertex -0.0433012694 -1.01456702 -0.145872697
   vertex 0.0250000004 -1.00902557 -0.265226334
   vertex 0.0250000004 -1.03947413 0.0892805606
  endloop
 endfacet
facet normal 0.258412719 -0.934507906 0.244781241
  outer loop
   vertex 0.0433012694 -0.974832952 0.31674248
   vertex -0.0250000004 -0.992238462 0.322397858
   vertex 0.0250000004 -1.03947413 0.0892805606
  endloop
 endfacet
facet normal -0.962179899 -0.26771763 0.0503701568
  outer loop
   vertex -0.0250000004 -0.992238462 0.322397858
   vertex -0.0433012694 -0.971423447 0.083435595
   vertex -0.0433012694 -1.01456702 -0.145872697
  endloop
 endfacet
facet normal 0.962347865 -0.271820843 -0.000181866781
  outer loop
   vertex 0.0433012694 -0.974602401 -0.0278421789
   vertex 0.0433012694 -0.974832952 0.31674248
   vertex 0.0250000004 -1.03947413 0.0892805606
  endloop
 endfacet
facet normal -0.259970903 -0.946193039 -0.192701444
  outer loop
   vertex -0.0250000004 -0.972214937 -0.378517777
   vertex 0.0250000004 -1.00902557 -0.265226334
   vertex -0.0433012694 -1.01456702 -0.145872697
  endloop
 endfacet
facet normal 0.874303877 -0.469432712 -0.123392262
  outer loop
   vertex 0.0433012694 -0.862322092 -0.455000639
   vertex 0.0433012694 -0.974602401 -0.0278421789
   vertex 0.0250000004 -1.03947413 0.0892805606
  endloop
 endfacet
facet normal 0.990224481 -0.13897115 -0.0119362157
  outer loop
   vertex 0.0250000004 -1.00902557 -0.265226334
   vertex 0.0433012694 -0.862322092 -0.455000639
   vertex 0.0250000004 -1.03947413 0.0892805606
  endloop
 endfacet
facet normal 0.257243454 -0.879019797 0.401434898
  outer loop
   vertex 0.0433012694 -0.974832952 0.31674248
   vertex -0.0250000004 -0.893430054 0.538758099
   vertex -0.0250000004 -0.992238462 0.322397858
  endloop
 endfacet
facet normal -0.988225162 -0.139179781 0.0635612682
  outer loop
   vertex -0.0250000004 -0.893430054 0.538758099
   vertex -0.0433012694 -0.971423447 0.083435595
   vertex -0.0250000004 -0.992238462 0.322397858
  endloop
 endfacet
facet normal -0.281624883 0.92754072 -0.245673835
  outer loop
   vertex -0.0433012694 -0.971423447 0.083435595
   vertex -0.0250000004 -0.937643766 0.189991251
   vertex 0.0433012694 -0.974602401 -0.0278421789
  endloop
 endfacet
facet normal 0.0437323749 0.950146616 -0.308721364
  outer loop
   vertex -0.0433012694 -0.834940314 0.503487468
   vertex -0.0250000004 -0.937643766 0.189991251
   vertex -0.0433012694 -0.971423447 0.083435595
  endloop
 endfacet
facet normal -0.92614454 -0.351470053 -0.136839807
  outer loop
   vertex -0.0433012694 -1.01456702 -0.145872697
   vertex -0.0433012694 -0.846108675 -0.578554273
   vertex -0.0250000004 -0.972214937 -0.378517777
  endloop
 endfacet
facet normal -0.964181125 -0.252262652 0.0819651112
  outer loop
   vertex -0.0250000004 -0.893430054 0.538758099
   vertex -0.0433012694 -0.834940314 0.503487468
   vertex -0.0433012694 -0.971423447 0.083435595
  endloop
 endfacet
facet normal 0.648058414 -0.628671646 0.429874718
  outer loop
   vertex 0.0433012694 -0.648837745 0.793495178
   vertex -0.0250000004 -0.893430054 0.538758099
   vertex 0.0433012694 -0.974832952 0.31674248
  endloop
 endfacet
facet normal 0.340510994 0.909350634 0.239026457
  outer loop
   vertex 0.0433012694 -0.862322092 -0.455000639
   vertex -0.0433012694 -0.971423447 0.083435595
   vertex 0.0433012694 -0.974602401 -0.0278421789
  endloop
 endfacet
facet normal -0.996591926 0.0810669363 -0.0152524672
  outer loop
   vertex -0.0250000004 -0.846135855 -0.446460038
   vertex -0.0433012694 -1.01456702 -0.145872697
   vertex -0.0433012694 -0.971423447 0.083435595
  endloop
 endfacet
facet normal 0.579954147 -0.664154768 -0.471753776
  outer loop
   vertex -0.0433012694 -0.846108675 -0.578554273
   vertex 0.0250000004 -1.00902557 -0.265226334
   vertex -0.0250000004 -0.972214937 -0.378517777
  endloop
 endfacet
facet normal 0.47735557 0.878710032 0.000587917282
  outer loop
   vertex -0.0250000004 -0.937643766 0.189991251
   vertex 0.0433012694 -0.974832952 0.31674248
   vertex 0.0433012694 -0.974602401 -0.0278421789
  endloop
 endfacet
facet normal 0.251609325 0.939878643 0.230913207
  outer loop
   vertex 0.0433012694 -0.862322092 -0.455000639
   vertex -0.0250000004 -0.846135855 -0.446460038
   vertex -0.0433012694 -0.971423447 0.083435595
  endloop
 endfacet
facet normal 0.81390357 0.502846122 -0.291044205
  outer loop
   vertex -0.0250000004 -0.937643766 0.189991251
   vertex -1.58945718e-10 -0.752307117 0.580115497
   vertex 0.0433012694 -0.974832952 0.31674248
  endloop
 endfacet
facet normal -0.93413794 0.33259356 0.12949051
  outer loop
   vertex -0.0433012694 -1.01456702 -0.145872697
   vertex -0.0250000004 -0.846135855 -0.446460038
   vertex -0.0433012694 -0.846108675 -0.578554273
  endloop
 endfacet
facet normal 0.883860528 -0.407445759 -0.229735747
  outer loop
   vertex 0.0250000004 -1.00902557 -0.265226334
   vertex 0.0433012694 -0.693079293 -0.755159676
   vertex 0.0433012694 -0.862322092 -0.455000639
  endloop
 endfacet
facet normal -0.74560082 0.619176626 -0.246373042
  outer loop
   vertex -0.0433012694 -0.834940314 0.503487468
   vertex -1.58945718e-10 -0.752307117 0.580115497
   vertex -0.0250000004 -0.937643766 0.189991251
  endloop
 endfacet
facet normal 0.382959962 -0.782787263 -0.490495443
  outer loop
   vertex -0.0433012694 -0.846108675 -0.578554273
   vertex 0.0433012694 -0.693079293 -0.755159676
   vertex 0.0250000004 -1.00902557 -0.265226334
  endloop
 endfacet
facet normal 0.628940821 0.641765714 -0.43882826
  outer loop
   vertex -1.58945718e-10 -0.752307117 0.580115497
   vertex 0.0433012694 -0.648837745 0.793495178
   vertex 0.0433012694 -0.974832952 0.31674248
  endloop
 endfacet
facet normal -0.152249202 -0.708771646 -0.688812733
  outer loop
   vertex -0.0433012694 -0.602479875 -0.829242408
   vertex 0.0433012694 -0.693079293 -0.755159676
   vertex -0.0433012694 -0.846108675 -0.578554273
  endloop
 endfacet
facet normal -0.310220689 -0.64281559 0.700393617
  outer loop
   vertex 0.0433012694 -0.648837745 0.793495178
   vertex -0.0250000004 -0.460326552 0.936257005
   vertex -0.0250000004 -0.893430054 0.538758099
  endloop
 endfacet
facet normal -0.963148594 -0.181870729 0.19816117
  outer loop
   vertex -0.0250000004 -0.460326552 0.936257005
   vertex -0.0433012694 -0.834940314 0.503487468
   vertex -0.0250000004 -0.893430054 0.538758099
  endloop
 endfacet
facet normal 0.226785809 0.973444164 -0.0312202126
  outer loop
   vertex 0.0433012694 -0.862322092 -0.455000639
   vertex -0.0433012694 -0.846108675 -0.578554273
   vertex -0.0250000004 -0.846135855 -0.446460038
  endloop
 endfacet
facet normal -0.0299355648 -0.64972192 -0.759582281
  outer loop
   vertex -0.0433012694 -0.602479875 -0.829242408
   vertex 0.0250000004 -0.513025582 -0.908450484
   vertex 0.0433012694 -0.693079293 -0.755159676
  endloop
 endfacet
facet normal 0 -0.603724182 0.797193289
  outer loop
   vertex 0.0250000004 -0.460326552 0.936257005
   vertex -0.0250000004 -0.460326552 0.936257005
   vertex 0.0433012694 -0.648837745 0.793495178
  endloop
 endfacet
facet normal -0.681637466 0.491262257 0.542246938
  outer loop
   vertex 0.0433012694 -0.862322092 -0.455000639
   vertex 0.0250000004 -0.470440269 -0.833041668
   vertex -0.0433012694 -0.846108675 -0.578554273
  endloop
 endfacet
facet normal 0.993161261 0.101698339 0.0573419742
  outer loop
   vertex 0.0433012694 -0.693079293 -0.755159676
   vertex 0.0250000004 -0.470440269 -0.833041668
   vertex 0.0433012694 -0.862322092 -0.455000639
  endloop
 endfacet
facet normal 0.221691921 0.598047376 -0.770189583
  outer loop
   vertex -0.0500000007 -0.226496786 0.974011898
   vertex -1.58945718e-10 -0.752307117 0.580115497
   vertex -0.0433012694 -0.834940314 0.503487468
  endloop
 endfacet
facet normal -1 0 0
  outer loop
   vertex -0.0433012694 -0.846108675 -0.578554273
   vertex -0.0433012694 -0.274689287 -0.935505629
   vertex -0.0433012694 -0.602479875 -0.829242408
  endloop
 endfacet
facet normal -0.979614794 -0.129528388 0.153548956
  outer loop
   vertex -0.0250000004 -0.460326552 0.936257005
   vertex -0.0500000007 -0.226496786 0.974011898
   vertex -0.0433012694 -0.834940314 0.503487468
  endloop
 endfacet
facet normal 0.965851665 0.093840301 -0.241504729
  outer loop
   vertex -1.58945718e-10 -0.752307117 0.580115497
   vertex 0.0433012694 -0.327648133 0.918298244
   vertex 0.0433012694 -0.648837745 0.793495178
  endloop
 endfacet
facet normal 0.186440349 0.600332737 -0.777714968
  outer loop
   vertex -0.0500000007 -0.226496786 0.974011898
   vertex 0.0433012694 -0.327648133 0.918298244
   vertex -1.58945718e-10 -0.752307117 0.580115497
  endloop
 endfacet
facet normal -0.399033785 -0.417974621 -0.816130638
  outer loop
   vertex -0.0433012694 -0.602479875 -0.829242408
   vertex -1.58945718e-10 -0.295819163 -1.00746763
   vertex 0.0250000004 -0.513025582 -0.908450484
  endloop
 endfacet
facet normal 0.863425136 0.228336096 0.449844062
  outer loop
   vertex 0.0250000004 -0.0595608056 -1.04159975
   vertex 0.0250000004 -0.470440269 -0.833041668
   vertex 0.0433012694 -0.693079293 -0.755159676
  endloop
 endfacet
facet normal 0.982435822 -0.0525715239 -0.179042175
  outer loop
   vertex 0.0250000004 -0.513025582 -0.908450484
   vertex 0.0250000004 -0.0595608056 -1.04159975
   vertex 0.0433012694 -0.693079293 -0.755159676
  endloop
 endfacet
facet normal 0.238944232 0.514454067 0.823554873
  outer loop
   vertex 0.0250000004 -0.470440269 -0.833041668
   vertex -0.0433012694 -0.274689287 -0.935505629
   vertex -0.0433012694 -0.846108675 -0.578554273
  endloop
 endfacet
facet normal 0 -0.336048782 0.941844583
  outer loop
   vertex 0.0250000004 -0.460326552 0.936257005
   vertex 0.0250000004 -0.236304402 1.01618779
   vertex -0.0250000004 -0.460326552 0.936257005
  endloop
 endfacet
facet normal -0.499989152 -0.189886138 0.844958067
  outer loop
   vertex 0.0250000004 -0.236304402 1.01618779
   vertex -0.0500000007 -0.226496786 0.974011898
   vertex -0.0250000004 -0.460326552 0.936257005
  endloop
 endfacet
facet normal 0.962347984 -0.0984490067 0.253365546
  outer loop
   vertex 0.0433012694 -0.648837745 0.793495178
   vertex 0.0433012694 -0.327648133 0.918298244
   vertex 0.0250000004 -0.460326552 0.936257005
  endloop
 endfacet
facet normal -0.551203728 -0.0496742949 -0.832890689
  outer loop
   vertex -0.0500000007 -0.226496786 0.974011898
   vertex -0.0250000004 -0.109055437 0.950462699
   vertex 0.0433012694 -0.327648133 0.918298244
  endloop
 endfacet
facet normal -0.865941167 -0.154235303 -0.475770265
  outer loop
   vertex -0.0433012694 -0.602479875 -0.829242408
   vertex -0.0433012694 -0.274689287 -0.935505629
   vertex -1.58945718e-10 -0.295819163 -1.00746763
  endloop
 endfacet
facet normal 0.804080427 -0.167495787 -0.570438325
  outer loop
   vertex -1.58945718e-10 -0.295819163 -1.00746763
   vertex 0.0250000004 -0.0595608056 -1.04159975
   vertex 0.0250000004 -0.513025582 -0.908450484
  endloop
 endfacet
facet normal 0.958462894 -0.0958469287 0.268630356
  outer loop
   vertex 0.0433012694 -0.327648133 0.918298244
   vertex 0.0250000004 -0.236304402 1.01618779
   vertex 0.0250000004 -0.460326552 0.936257005
  endloop
 endfacet
facet normal -0.864419162 -0.0821930915 -0.49600786
  outer loop
   vertex -0.0433012694 -0.274689287 -0.935505629
   vertex -0.0433012694 0.174785197 -1.00998771
   vertex -1.58945718e-10 -0.295819163 -1.00746763
  endloop
 endfacet
facet normal 0.994534731 -0.047256235 -0.0930993259
  outer loop
   vertex 0.0433012694 0.16625908 -0.960720003
   vertex 0.0250000004 -0.470440269 -0.833041668
   vertex 0.0250000004 -0.0595608056 -1.04159975
  endloop
 endfacet
facet normal -0.499989152 -0.202409714 0.842045784
  outer loop
   vertex 0.0250000004 -0.236304402 1.01618779
   vertex -0.0250000004 4.6797954e-08 1.04330134
   vertex -0.0500000007 -0.226496786 0.974011898
  endloop
 endfacet
facet normal 0.976356566 -0.0332768783 0.213589698
  outer loop
   vertex 0.0433012694 -0.327648133 0.918298244
   vertex 0.0500000007 0.226496756 0.974011898
   vertex 0.0250000004 -0.236304402 1.01618779
  endloop
 endfacet
facet normal -0.574279845 -0.0572138615 -0.816657364
  outer loop
   vertex -0.0433012694 0.174785197 -1.00998771
   vertex 0.0250000004 -0.0595608056 -1.04159975
   vertex -1.58945718e-10 -0.295819163 -1.00746763
  endloop
 endfacet
facet normal -1 0 0
  outer loop
   vertex -0.0433012694 -0.274689287 -0.935505629
   vertex -0.0433012694 0.0556615442 -0.973409891
   vertex -0.0433012694 0.174785197 -1.00998771
  endloop
 endfacet
facet normal -0.640551925 0.168643832 0.74916786
  outer loop
   vertex 0.0433012694 0.16625908 -0.960720003
   vertex -0.0433012694 -0.274689287 -0.935505629
   vertex 0.0250000004 -0.470440269 -0.833041668
  endloop
 endfacet
facet normal -0.279543042 0.109447032 0.953874767
  outer loop
   vertex 0.0433012694 0.16625908 -0.960720003
   vertex -0.0433012694 0.0556615442 -0.973409891
   vertex -0.0433012694 -0.274689287 -0.935505629
  endloop
 endfacet
facet normal 0.26208508 -0.0550936237 0.963470876
  outer loop
   vertex 0.0250000004 0.118927412 1.03650081
   vertex -0.0250000004 4.6797954e-08 1.04330134
   vertex 0.0250000004 -0.236304402 1.01618779
  endloop
 endfacet
facet normal 0.939437568 -0.0195656121 0.342161149
  outer loop
   vertex 0.0500000007 0.226496756 0.974011898
   vertex 0.0250000004 0.118927412 1.03650081
   vertex 0.0250000004 -0.236304402 1.01618779
  endloop
 endfacet
facet normal -0.685670137 -0 -0.727912366
  outer loop
   vertex -0.0500000007 0.226496756 0.974011898
   vertex -0.0250000004 -0.109055437 0.950462699
   vertex -0.0500000007 -0.226496786 0.974011898
  endloop
 endfacet
facet normal -0.261661798 0.0599836558 -0.96329385
  outer loop
   vertex -0.0250000004 -0.109055437 0.950462699
   vertex 0.0250000004 0.109055467 0.950462699
   vertex 0.0433012694 -0.327648133 0.918298244
  endloop
 endfacet
facet normal -0.224820346 0.0515380837 -0.973036289
  outer loop
   vertex -0.0500000007 0.226496756 0.974011898
   vertex 0.0250000004 0.109055467 0.950462699
   vertex -0.0250000004 -0.109055437 0.950462699
  endloop
 endfacet
facet normal 0.444153219 0.0843099579 -0.891975164
  outer loop
   vertex 0.0250000004 0.109055467 0.950462699
   vertex 0.0500000007 0.226496756 0.974011898
   vertex 0.0433012694 -0.327648133 0.918298244
  endloop
 endfacet
facet normal 0.20005241 -0.264883161 0.943300545
  outer loop
   vertex 0.0433012694 0.16625908 -0.960720003
   vertex 0.0500000007 0.491732955 -0.870746076
   vertex -0.0433012694 0.0556615442 -0.973409891
  endloop
 endfacet
facet normal 0.127958044 0.169120371 -0.977253854
  outer loop
   vertex -0.0433012694 0.174785197 -1.00998771
   vertex 0.0250000004 0.406126022 -0.961009502
   vertex 0.0250000004 -0.0595608056 -1.04159975
  endloop
 endfacet
facet normal -0.940645754 0 0.33938998
  outer loop
   vertex -0.0250000004 4.6797954e-08 1.04330134
   vertex -0.0500000007 0.226496756 0.974011898
   vertex -0.0500000007 -0.226496786 0.974011898
  endloop
 endfacet
facet normal 0.727152586 0.210566103 0.653384268
  outer loop
   vertex 0.0500000007 0.226496756 0.974011898
   vertex -1.58945718e-10 0.352851868 0.988936543
   vertex 0.0250000004 0.118927412 1.03650081
  endloop
 endfacet
facet normal -0.263432294 0.165101975 0.95044452
  outer loop
   vertex 0.0250000004 0.118927412 1.03650081
   vertex -1.58945718e-10 0.352851868 0.988936543
   vertex -0.0250000004 4.6797954e-08 1.04330134
  endloop
 endfacet
facet normal -1 0 0
  outer loop
   vertex -0.0433012694 0.479439616 -0.848977447
   vertex -0.0433012694 0.174785197 -1.00998771
   vertex -0.0433012694 0.0556615442 -0.973409891
  endloop
 endfacet
facet normal 0.913848221 0.0692415163 -0.400108755
  outer loop
   vertex 0.0250000004 -0.0595608056 -1.04159975
   vertex 0.0250000004 0.406126022 -0.961009502
   vertex 0.0433012694 0.16625908 -0.960720003
  endloop
 endfacet
facet normal 0.941759527 0.0714573786 -0.32860747
  outer loop
   vertex 0.0250000004 0.406126022 -0.961009502
   vertex 0.0500000007 0.491732955 -0.870746076
   vertex 0.0433012694 0.16625908 -0.960720003
  endloop
 endfacet
facet normal -0.106245011 0.280137926 0.954062223
  outer loop
   vertex -0.0250000004 4.6797954e-08 1.04330134
   vertex -0.0250000004 0.56405133 0.877680957
   vertex -0.0500000007 0.226496756 0.974011898
  endloop
 endfacet
facet normal -0.883890152 0.13176477 0.448749632
  outer loop
   vertex -1.58945718e-10 0.352851868 0.988936543
   vertex -0.0250000004 0.56405133 0.877680957
   vertex -0.0250000004 4.6797954e-08 1.04330134
  endloop
 endfacet
facet normal 0.252526939 -0.272601515 0.928395689
  outer loop
   vertex 0.0500000007 0.491732955 -0.870746076
   vertex -0.0433012694 0.479439616 -0.848977447
   vertex -0.0433012694 0.0556615442 -0.973409891
  endloop
 endfacet
facet normal -0.9659006 0.120979443 -0.228910387
  outer loop
   vertex -0.0433012694 0.479439616 -0.848977447
   vertex -0.0250000004 0.513025582 -0.908450484
   vertex -0.0433012694 0.174785197 -1.00998771
  endloop
 endfacet
facet normal -0.32989943 0.287750572 -0.89909178
  outer loop
   vertex -0.0250000004 0.513025582 -0.908450484
   vertex 0.0250000004 0.406126022 -0.961009502
   vertex -0.0433012694 0.174785197 -1.00998771
  endloop
 endfacet
facet normal 0.804724932 -0.0527366661 -0.591300845
  outer loop
   vertex -0.0433012694 0.527124822 0.820222199
   vertex 0.0500000007 0.226496756 0.974011898
   vertex 0.0250000004 0.109055467 0.950462699
  endloop
 endfacet
facet normal -0.695689976 -0.314806938 -0.645687222
  outer loop
   vertex -0.0500000007 0.226496756 0.974011898
   vertex -0.0433012694 0.527124822 0.820222199
   vertex 0.0250000004 0.109055467 0.950462699
  endloop
 endfacet
facet normal 0.754286468 0.225654155 0.616548538
  outer loop
   vertex 0.0500000007 0.226496756 0.974011898
   vertex 0.0433012694 0.55415678 0.862284958
   vertex -1.58945718e-10 0.352851868 0.988936543
  endloop
 endfacet
facet normal 0.255277008 -0.612039506 0.748492718
  outer loop
   vertex 0.0500000007 0.755749583 -0.654860735
   vertex -0.0433012694 0.479439616 -0.848977447
   vertex 0.0500000007 0.491732955 -0.870746076
  endloop
 endfacet
facet normal -0.0977110416 -0.451523036 -0.886893153
  outer loop
   vertex -0.0500000007 0.226496756 0.974011898
   vertex -0.0433012694 0.735060096 0.714361012
   vertex -0.0433012694 0.527124822 0.820222199
  endloop
 endfacet
facet normal -0.955204606 0.144456491 0.258295357
  outer loop
   vertex -0.0250000004 0.56405133 0.877680957
   vertex -0.0433012694 0.735060096 0.714361012
   vertex -0.0500000007 0.226496756 0.974011898
  endloop
 endfacet
facet normal 0.258408934 0.474005282 0.841750443
  outer loop
   vertex 0.0433012694 0.55415678 0.862284958
   vertex -0.0250000004 0.56405133 0.877680957
   vertex -1.58945718e-10 0.352851868 0.988936543
  endloop
 endfacet
facet normal -0.9659006 0.133553714 -0.221809372
  outer loop
   vertex -0.0433012694 0.479439616 -0.848977447
   vertex -0.0433012694 0.774643362 -0.671232224
   vertex -0.0250000004 0.513025582 -0.908450484
  endloop
 endfacet
facet normal 0.262083352 0.52174288 -0.811847687
  outer loop
   vertex -0.0250000004 0.513025582 -0.908450484
   vertex 0.0250000004 0.705454171 -0.768642962
   vertex 0.0250000004 0.406126022 -0.961009502
  endloop
 endfacet
facet normal 0.487881899 -0.272769004 -0.829197407
  outer loop
   vertex -0.0433012694 0.527124822 0.820222199
   vertex 0.0433012694 0.55415678 0.862284958
   vertex 0.0500000007 0.226496756 0.974011898
  endloop
 endfacet
facet normal 0.85965842 -0.454357654 0.233551905
  outer loop
   vertex 0.0250000004 0.723024726 -0.626504421
   vertex -0.0433012694 0.479439616 -0.848977447
   vertex 0.0500000007 0.755749583 -0.654860735
  endloop
 endfacet
facet normal 0.0117282718 -0.676128387 0.736690462
  outer loop
   vertex 0.0250000004 0.723024726 -0.626504421
   vertex -0.0433012694 0.804835141 -0.550332129
   vertex -0.0433012694 0.479439616 -0.848977447
  endloop
 endfacet
facet normal 0.253428221 0.682161987 0.685878396
  outer loop
   vertex 0.0433012694 0.55415678 0.862284958
   vertex -0.0433012694 0.735060096 0.714361012
   vertex -0.0250000004 0.56405133 0.877680957
  endloop
 endfacet
facet normal -1 0 0
  outer loop
   vertex -0.0433012694 0.804835141 -0.550332129
   vertex -0.0433012694 0.774643362 -0.671232224
   vertex -0.0433012694 0.479439616 -0.848977447
  endloop
 endfacet
facet normal 0.913800657 0.257106245 -0.314427674
  outer loop
   vertex 0.0250000004 0.705454171 -0.768642962
   vertex 0.0500000007 0.755749583 -0.654860735
   vertex 0.0500000007 0.491732955 -0.870746076
  endloop
 endfacet
facet normal 0.764529347 0.348491102 -0.542262673
  outer loop
   vertex 0.0250000004 0.406126022 -0.961009502
   vertex 0.0250000004 0.705454171 -0.768642962
   vertex 0.0500000007 0.491732955 -0.870746076
  endloop
 endfacet
facet normal -0.381348103 0.60617435 -0.697944343
  outer loop
   vertex -0.0433012694 0.774643362 -0.671232224
   vertex 0.0250000004 0.705454171 -0.768642962
   vertex -0.0250000004 0.513025582 -0.908450484
  endloop
 endfacet
facet normal -1 -0 -0
  outer loop
   vertex -0.0433012694 0.735060096 0.714361012
   vertex -0.0433012694 0.834940374 0.503487468
   vertex -0.0433012694 0.527124822 0.820222199
  endloop
 endfacet
facet normal 0.223714381 0.678915262 0.699303865
  outer loop
   vertex 0.0250000004 0.893430114 0.538758099
   vertex -0.0433012694 0.735060096 0.714361012
   vertex 0.0433012694 0.55415678 0.862284958
  endloop
 endfacet
facet normal -0.935846031 -0.252723813 -0.245607167
  outer loop
   vertex -0.0433012694 0.834940374 0.503487468
   vertex -0.0250000004 0.870243847 0.397427052
   vertex -0.0433012694 0.527124822 0.820222199
  endloop
 endfacet
facet normal 0.478566259 -0.691806734 -0.540719748
  outer loop
   vertex -0.0250000004 0.870243847 0.397427052
   vertex 0.0433012694 0.55415678 0.862284958
   vertex -0.0433012694 0.527124822 0.820222199
  endloop
 endfacet
facet normal 0.764529347 0.510451436 -0.393616825
  outer loop
   vertex 0.0250000004 0.705454171 -0.768642962
   vertex 0.0250000004 0.922730029 -0.48687458
   vertex 0.0500000007 0.755749583 -0.654860735
  endloop
 endfacet
facet normal 0.663592815 -0.569689155 -0.484869897
  outer loop
   vertex -0.0250000004 0.870243847 0.397427052
   vertex 0.0500000007 0.856349051 0.516397476
   vertex 0.0433012694 0.55415678 0.862284958
  endloop
 endfacet
facet normal 0 0.791902304 -0.610647798
  outer loop
   vertex -0.0250000004 0.922730029 -0.48687458
   vertex 0.0250000004 0.922730029 -0.48687458
   vertex 0.0250000004 0.705454171 -0.768642962
  endloop
 endfacet
facet normal 0.861602306 0.373862416 0.343319654
  outer loop
   vertex 0.0500000007 0.856349051 0.516397476
   vertex 0.0250000004 0.893430114 0.538758099
   vertex 0.0433012694 0.55415678 0.862284958
  endloop
 endfacet
facet normal -0.090692535 0.780791879 -0.618173838
  outer loop
   vertex -0.0433012694 0.774643362 -0.671232224
   vertex -0.0250000004 0.922730029 -0.48687458
   vertex 0.0250000004 0.705454171 -0.768642962
  endloop
 endfacet
facet normal 0.966305733 0.239512444 -0.0942711681
  outer loop
   vertex 0.0250000004 0.922730029 -0.48687458
   vertex 0.0433012694 0.94296819 -0.247862875
   vertex 0.0500000007 0.755749583 -0.654860735
  endloop
 endfacet
facet normal -0.0977088884 -0.899425328 -0.426012933
  outer loop
   vertex -0.0433012694 0.735060096 0.714361012
   vertex -0.0500000007 0.980082572 0.198590502
   vertex -0.0433012694 0.834940374 0.503487468
  endloop
 endfacet
facet normal -0.40753141 -0.780946195 0.473329872
  outer loop
   vertex 0.0433012694 0.94296819 -0.247862875
   vertex -0.0433012694 0.804835141 -0.550332129
   vertex 0.0250000004 0.723024726 -0.626504421
  endloop
 endfacet
facet normal 0.858595133 -0.46023038 0.225837037
  outer loop
   vertex 0.0500000007 0.755749583 -0.654860735
   vertex 0.0433012694 0.94296819 -0.247862875
   vertex 0.0250000004 0.723024726 -0.626504421
  endloop
 endfacet
facet normal -0.55587101 -0.755237937 -0.347308338
  outer loop
   vertex -0.0433012694 0.834940374 0.503487468
   vertex -0.0500000007 0.980082572 0.198590502
   vertex -0.0250000004 0.870243847 0.397427052
  endloop
 endfacet
facet normal 0.224819303 -0.941338956 -0.25166893
  outer loop
   vertex 0.0250000004 0.937643707 0.189991251
   vertex 0.0500000007 0.856349051 0.516397476
   vertex -0.0250000004 0.870243847 0.397427052
  endloop
 endfacet
facet normal -0.983341455 0.176352352 -0.0440395959
  outer loop
   vertex -0.0433012694 0.804835141 -0.550332129
   vertex -0.0250000004 0.922730029 -0.48687458
   vertex -0.0433012694 0.774643362 -0.671232224
  endloop
 endfacet
facet normal 0.407530963 -0.869130075 0.280234665
  outer loop
   vertex 0.0433012694 0.94296819 -0.247862875
   vertex -0.0250000004 0.946960986 -0.136152416
   vertex -0.0433012694 0.804835141 -0.550332129
  endloop
 endfacet
facet normal -0.520446122 0.72488004 0.451314479
  outer loop
   vertex 0.0250000004 0.893430114 0.538758099
   vertex -0.0250000004 0.992238462 0.322397858
   vertex -0.0433012694 0.735060096 0.714361012
  endloop
 endfacet
facet normal -0.937661648 0.309048802 0.158995226
  outer loop
   vertex -0.0433012694 0.735060096 0.714361012
   vertex -0.0250000004 0.992238462 0.322397858
   vertex -0.0500000007 0.980082572 0.198590502
  endloop
 endfacet
facet normal 0.84199506 0.537097394 0.0507022627
  outer loop
   vertex 0.0500000007 0.856349051 0.516397476
   vertex -0.0250000004 0.992238462 0.322397858
   vertex 0.0250000004 0.893430114 0.538758099
  endloop
 endfacet
facet normal -0.0837906078 -0.996360958 -0.0156184016
  outer loop
   vertex 0.0433012694 0.94296819 -0.247862875
   vertex 0.0250000004 0.937643707 0.189991251
   vertex -0.0250000004 0.946960986 -0.136152416
  endloop
 endfacet
facet normal 0.596838653 -0.7941944 -0.114187904
  outer loop
   vertex -0.0250000004 0.946960986 -0.136152416
   vertex 0.0250000004 0.937643707 0.189991251
   vertex -0.0250000004 0.870243847 0.397427052
  endloop
 endfacet
facet normal 0.940486491 -0.338003159 0.035199862
  outer loop
   vertex 0.0433012694 0.94296819 -0.247862875
   vertex 0.0500000007 0.996331692 0.0855749995
   vertex 0.0250000004 0.937643707 0.189991251
  endloop
 endfacet
facet normal -0.97850579 0.192168385 -0.0748180896
  outer loop
   vertex -0.0433012694 0.804835141 -0.550332129
   vertex -0.0250000004 1.00902569 -0.265226334
   vertex -0.0250000004 0.922730029 -0.48687458
  endloop
 endfacet
facet normal 0.685670316 -0.692285717 -0.224937141
  outer loop
   vertex 0.0500000007 0.996331692 0.0855749995
   vertex 0.0500000007 0.856349051 0.516397476
   vertex 0.0250000004 0.937643707 0.189991251
  endloop
 endfacet
facet normal -0.998234451 0.0535302907 0.0257398393
  outer loop
   vertex -0.0250000004 0.946960986 -0.136152416
   vertex -0.0250000004 1.00902569 -0.265226334
   vertex -0.0433012694 0.804835141 -0.550332129
  endloop
 endfacet
facet normal 0.913848162 0.392715901 -0.103226863
  outer loop
   vertex 0.0250000004 0.922730029 -0.48687458
   vertex 0.0250000004 1.04287577 -0.0297925584
   vertex 0.0433012694 0.94296819 -0.247862875
  endloop
 endfacet
facet normal -0.954926133 -0.293822169 -0.0422452465
  outer loop
   vertex -0.0500000007 0.980082572 0.198590502
   vertex -0.0250000004 0.946960986 -0.136152416
   vertex -0.0250000004 0.870243847 0.397427052
  endloop
 endfacet
facet normal 0 0.931863844 -0.362808228
  outer loop
   vertex -0.0250000004 0.922730029 -0.48687458
   vertex -0.0250000004 1.00902569 -0.265226334
   vertex 0.0250000004 0.922730029 -0.48687458
  endloop
 endfacet
facet normal 0.710832417 0.674930096 0.19795616
  outer loop
   vertex 0.0250000004 1.04287577 -0.0297925584
   vertex -0.0250000004 0.992238462 0.322397858
   vertex 0.0500000007 0.856349051 0.516397476
  endloop
 endfacet
facet normal -0.825035214 0.553826392 0.112219721
  outer loop
   vertex -0.0250000004 0.992238462 0.322397858
   vertex -0.0250000004 1.03947413 0.0892805606
   vertex -0.0500000007 0.980082572 0.198590502
  endloop
 endfacet
facet normal 0.325816184 0.899160385 0.292154789
  outer loop
   vertex 0.0500000007 0.996331692 0.0855749995
   vertex 0.0250000004 1.04287577 -0.0297925584
   vertex 0.0500000007 0.856349051 0.516397476
  endloop
 endfacet
facet normal 0.941759467 0.328596532 -0.0715085343
  outer loop
   vertex 0.0250000004 1.04287577 -0.0297925584
   vertex 0.0500000007 0.996331692 0.0855749995
   vertex 0.0433012694 0.94296819 -0.247862875
  endloop
 endfacet
facet normal -0.968007147 0.232135668 -0.0952637941
  outer loop
   vertex -0.0250000004 1.03947413 0.0892805606
   vertex -0.0250000004 0.946960986 -0.136152416
   vertex -0.0500000007 0.980082572 0.198590502
  endloop
 endfacet
facet normal -1 0 0
  outer loop
   vertex -0.0250000004 1.03947413 0.0892805606
   vertex -0.0250000004 1.00902569 -0.265226334
   vertex -0.0250000004 0.946960986 -0.136152416
  endloop
 endfacet
facet normal 0.476693988 0.850189149 -0.223475426
  outer loop
   vertex -0.0250000004 1.00902569 -0.265226334
   vertex 0.0250000004 1.04287577 -0.0297925584
   vertex 0.0250000004 0.922730029 -0.48687458
  endloop
 endfacet
facet normal 0.376383275 0.908011258 0.183986858
  outer loop
   vertex -0.0250000004 0.992238462 0.322397858
   vertex 0.0250000004 1.04287577 -0.0297925584
   vertex -0.0250000004 1.03947413 0.0892805606
  endloop
 endfacet
facet normal -0.262082785 0.961505413 -0.0825832635
  outer loop
   vertex -0.0250000004 1.00902569 -0.265226334
   vertex -0.0250000004 1.03947413 0.0892805606
   vertex 0.0250000004 1.04287577 -0.0297925584
  endloop
 endfacet
endsolid MATLAB_1
