solid MATLAB_1
facet normal -0.0319359377 -0.995878637 -0.0848869532
  outer loop
   vertex 0.279487789 -0.941687226 -0.187381282
   vertex 0.156772956 -0.969696105 0.187381342
   vertex -0.339247674 -0.921845555 -0.187381282
  endloop
 endfacet
facet normal -0.0319359936 -0.995878637 -0.0848868787
  outer loop
   vertex 0.156772956 -0.969696105 0.187381342
   vertex -0.218579471 -0.957659245 0.187381342
   vertex -0.339247674 -0.921845555 -0.187381282
  endloop
 endfacet
facet normal -0.0318126231 -0.992033303 -0.121892959
  outer loop
   vertex -0.0868842155 -0.900645971 -0.425779283
   vertex 0.279487789 -0.941687226 -0.187381282
   vertex -0.339247674 -0.921845555 -0.187381282
  endloop
 endfacet
facet normal 0.497335076 -0.861956656 0.0984301716
  outer loop
   vertex 0.279487789 -0.941687226 -0.187381282
   vertex 0.564150512 -0.707422256 0.425779283
   vertex 0.156772956 -0.969696105 0.187381342
  endloop
 endfacet
facet normal 0.218225136 -0.848842442 -0.481502086
  outer loop
   vertex -0.0868842155 -0.900645971 -0.425779283
   vertex 0.194772586 -0.656253278 -0.72896862
   vertex 0.279487789 -0.941687226 -0.187381282
  endloop
 endfacet
facet normal -0.0290977657 -0.907372594 0.419318885
  outer loop
   vertex 0.156772956 -0.969696105 0.187381342
   vertex 0.122973874 -0.760636628 0.637423933
   vertex -0.218579471 -0.957659245 0.187381342
  endloop
 endfacet
facet normal -0.461587876 -0.884777606 0.0640721023
  outer loop
   vertex -0.218579471 -0.957659245 0.187381342
   vertex -0.660392582 -0.727165639 0.187381342
   vertex -0.339247674 -0.921845555 -0.187381282
  endloop
 endfacet
facet normal 0.280181348 -0.830454171 -0.481502086
  outer loop
   vertex 0.194772586 -0.656253278 -0.72896862
   vertex 0.564150512 -0.707422256 -0.425779283
   vertex 0.279487789 -0.941687226 -0.187381282
  endloop
 endfacet
facet normal 0.304599017 -0.854881585 0.419996381
  outer loop
   vertex 0.564150512 -0.707422256 0.425779283
   vertex 0.122973874 -0.760636628 0.637423933
   vertex 0.156772956 -0.969696105 0.187381342
  endloop
 endfacet
facet normal -0.598700821 -0.79467696 -0.100228958
  outer loop
   vertex -0.660392582 -0.727165639 0.187381342
   vertex -0.724178135 -0.616501868 -0.309017032
   vertex -0.339247674 -0.921845555 -0.187381282
  endloop
 endfacet
facet normal -0.361984909 -0.813310504 -0.455513924
  outer loop
   vertex -0.339247674 -0.921845555 -0.187381282
   vertex -0.567642391 -0.625037372 -0.535826802
   vertex -0.0868842155 -0.900645971 -0.425779283
  endloop
 endfacet
facet normal -0.191172674 -0.837582469 0.511770129
  outer loop
   vertex 0.122973874 -0.760636628 0.637423933
   vertex -0.440823495 -0.631953597 0.637423933
   vertex -0.218579471 -0.957659245 0.187381342
  endloop
 endfacet
facet normal -0.427477151 -0.819393694 0.381912559
  outer loop
   vertex -0.440823495 -0.631953597 0.637423933
   vertex -0.660392582 -0.727165639 0.187381342
   vertex -0.218579471 -0.957659245 0.187381342
  endloop
 endfacet
facet normal 0.571465552 -0.819238901 0.0476939343
  outer loop
   vertex 0.787218392 -0.587516367 -0.187381282
   vertex 0.564150512 -0.707422256 0.425779283
   vertex 0.279487789 -0.941687226 -0.187381282
  endloop
 endfacet
facet normal 0.473464251 -0.880813003 0
  outer loop
   vertex 0.787218392 -0.587516367 -0.187381282
   vertex 0.787218392 -0.587516367 0.187381342
   vertex 0.564150512 -0.707422256 0.425779283
  endloop
 endfacet
facet normal -0.520590723 -0.787600338 -0.329652846
  outer loop
   vertex -0.724178135 -0.616501868 -0.309017032
   vertex -0.567642391 -0.625037372 -0.535826802
   vertex -0.339247674 -0.921845555 -0.187381282
  endloop
 endfacet
facet normal -0.063490957 -0.747344673 -0.661396086
  outer loop
   vertex -0.203000486 -0.55161792 -0.809017003
   vertex 0.194772586 -0.656253278 -0.72896862
   vertex -0.0868842155 -0.900645971 -0.425779283
  endloop
 endfacet
facet normal 0.567850471 -0.814056456 -0.121892981
  outer loop
   vertex 0.564150512 -0.707422256 -0.425779283
   vertex 0.787218392 -0.587516367 -0.187381282
   vertex 0.279487789 -0.941687226 -0.187381282
  endloop
 endfacet
facet normal -0.293740869 -0.7493487 -0.593458354
  outer loop
   vertex -0.567642391 -0.625037372 -0.535826802
   vertex -0.203000486 -0.55161792 -0.809017003
   vertex -0.0868842155 -0.900645971 -0.425779283
  endloop
 endfacet
facet normal -0.668035448 -0.591789603 0.451124936
  outer loop
   vertex -0.440823495 -0.631953597 0.637423933
   vertex -0.85687232 -0.412647963 0.309016973
   vertex -0.660392582 -0.727165639 0.187381342
  endloop
 endfacet
facet normal 0.735592127 -0.530248046 -0.421593755
  outer loop
   vertex 0.564150512 -0.707422256 -0.425779283
   vertex 0.782621682 -0.316848397 -0.535826802
   vertex 0.787218392 -0.587516367 -0.187381282
  endloop
 endfacet
facet normal 0.723266721 -0.569776237 0.390179753
  outer loop
   vertex 0.787218392 -0.587516367 0.187381342
   vertex 0.735678732 -0.414326549 0.535826802
   vertex 0.564150512 -0.707422256 0.425779283
  endloop
 endfacet
facet normal 0.51314503 -0.486303866 -0.707241654
  outer loop
   vertex 0.194772586 -0.656253278 -0.72896862
   vertex 0.782621682 -0.316848397 -0.535826802
   vertex 0.564150512 -0.707422256 -0.425779283
  endloop
 endfacet
facet normal -0.849542439 -0.527453005 -0.00842347648
  outer loop
   vertex -0.660392582 -0.727165639 0.187381342
   vertex -0.85687232 -0.412647963 0.309016973
   vertex -0.724178135 -0.616501868 -0.309017032
  endloop
 endfacet
facet normal -0.158366859 -0.693850756 0.702489197
  outer loop
   vertex 0.0938104242 -0.580250919 0.809016943
   vertex -0.440823495 -0.631953597 0.637423933
   vertex 0.122973874 -0.760636628 0.637423933
  endloop
 endfacet
facet normal -0.453071058 -0.498881578 -0.738812387
  outer loop
   vertex -0.529576242 -0.255030453 -0.809017003
   vertex -0.203000486 -0.55161792 -0.809017003
   vertex -0.567642391 -0.625037372 -0.535826802
  endloop
 endfacet
facet normal -0.22662738 -0.476249456 0.849603713
  outer loop
   vertex 0.0938104242 -0.580250919 0.809016943
   vertex -0.434045106 -0.209025085 0.876306653
   vertex -0.440823495 -0.631953597 0.637423933
  endloop
 endfacet
facet normal 0.418999702 -0.523707151 0.741734505
  outer loop
   vertex 0.564150512 -0.707422256 0.425779283
   vertex 0.735678732 -0.414326549 0.535826802
   vertex 0.122973874 -0.760636628 0.637423933
  endloop
 endfacet
facet normal 0.0670831278 -0.432748973 -0.899015129
  outer loop
   vertex -0.210610166 -0.30192554 -0.92977649
   vertex 0.194772586 -0.656253278 -0.72896862
   vertex -0.203000486 -0.55161792 -0.809017003
  endloop
 endfacet
facet normal 0.441351563 -0.579981685 0.684711695
  outer loop
   vertex 0.735678732 -0.414326549 0.535826802
   vertex 0.0938104242 -0.580250919 0.809016943
   vertex 0.122973874 -0.760636628 0.637423933
  endloop
 endfacet
facet normal -0.826190233 -0.563328266 0.00842351746
  outer loop
   vertex -0.85687232 -0.412647963 0.309016973
   vertex -0.932245374 -0.309526801 -0.187381282
   vertex -0.724178135 -0.616501868 -0.309017032
  endloop
 endfacet
facet normal 0.16112335 -0.340617716 -0.926293075
  outer loop
   vertex -0.210610166 -0.30192554 -0.92977649
   vertex 0.512148321 -0.288436532 -0.809017003
   vertex 0.194772586 -0.656253278 -0.72896862
  endloop
 endfacet
facet normal 0.539331913 -0.595046163 -0.595853329
  outer loop
   vertex 0.512148321 -0.288436532 -0.809017003
   vertex 0.782621682 -0.316848397 -0.535826802
   vertex 0.194772586 -0.656253278 -0.72896862
  endloop
 endfacet
facet normal -0.758624792 -0.407660693 -0.508233428
  outer loop
   vertex -0.756304324 -0.147290289 -0.637423992
   vertex -0.567642391 -0.625037372 -0.535826802
   vertex -0.724178135 -0.616501868 -0.309017032
  endloop
 endfacet
facet normal -0.374948531 -0.412860006 -0.830036283
  outer loop
   vertex -0.529576242 -0.255030453 -0.809017003
   vertex -0.210610166 -0.30192554 -0.92977649
   vertex -0.203000486 -0.55161792 -0.809017003
  endloop
 endfacet
facet normal 0.44492197 -0.516157269 0.73186481
  outer loop
   vertex 0.446545541 -0.180786252 0.876306653
   vertex 0.0938104242 -0.580250919 0.809016943
   vertex 0.735678732 -0.414326549 0.535826802
  endloop
 endfacet
facet normal -0.152456164 -0.38200292 0.911499262
  outer loop
   vertex 0.0356607661 -0.120152958 0.992114723
   vertex -0.434045106 -0.209025085 0.876306653
   vertex 0.0938104242 -0.580250919 0.809016943
  endloop
 endfacet
facet normal -0.595701396 -0.387758613 0.703408182
  outer loop
   vertex -0.434045106 -0.209025085 0.876306653
   vertex -0.756304324 -0.147290289 0.637423933
   vertex -0.440823495 -0.631953597 0.637423933
  endloop
 endfacet
facet normal -0.811549544 -0.371313423 -0.451124907
  outer loop
   vertex -0.932245374 -0.309526801 -0.187381282
   vertex -0.756304324 -0.147290289 -0.637423992
   vertex -0.724178135 -0.616501868 -0.309017032
  endloop
 endfacet
facet normal 0.158405781 -0.397961855 -0.903622687
  outer loop
   vertex -0.210610166 -0.30192554 -0.92977649
   vertex 0.246648192 -0.0318017565 -0.968583167
   vertex 0.512148321 -0.288436532 -0.809017003
  endloop
 endfacet
facet normal -0.687411785 -0.447455436 0.572056532
  outer loop
   vertex -0.440823495 -0.631953597 0.637423933
   vertex -0.756304324 -0.147290289 0.637423933
   vertex -0.85687232 -0.412647963 0.309016973
  endloop
 endfacet
facet normal 0.208599761 -0.338744074 0.917463124
  outer loop
   vertex 0.446545541 -0.180786252 0.876306653
   vertex 0.0356607661 -0.120152958 0.992114723
   vertex 0.0938104242 -0.580250919 0.809016943
  endloop
 endfacet
facet normal 0.926916778 -0.375266939 0
  outer loop
   vertex 0.787218392 -0.587516367 -0.187381282
   vertex 0.97422266 -0.125612125 0.187381342
   vertex 0.787218392 -0.587516367 0.187381342
  endloop
 endfacet
facet normal 0.919120729 -0.305169046 -0.249176458
  outer loop
   vertex 0.782621682 -0.316848397 -0.535826802
   vertex 0.982287228 0 -0.187381282
   vertex 0.787218392 -0.587516367 -0.187381282
  endloop
 endfacet
facet normal 0.977399945 -0.0920327827 0.190313861
  outer loop
   vertex 0.787218392 -0.587516367 0.187381342
   vertex 0.764187396 0.0985310078 0.637423933
   vertex 0.735678732 -0.414326549 0.535826802
  endloop
 endfacet
facet normal -0.666340053 -0.397319406 -0.630974054
  outer loop
   vertex -0.756304324 -0.147290289 -0.637423992
   vertex -0.529576242 -0.255030453 -0.809017003
   vertex -0.567642391 -0.625037372 -0.535826802
  endloop
 endfacet
facet normal 0.696119845 -0.141270101 -0.703889132
  outer loop
   vertex 0.512148321 -0.288436532 -0.809017003
   vertex 0.764187396 0.0985310078 -0.637423992
   vertex 0.782621682 -0.316848397 -0.535826802
  endloop
 endfacet
facet normal 0.686559081 -0.177823588 0.704993188
  outer loop
   vertex 0.764187396 0.0985310078 0.637423933
   vertex 0.446545541 -0.180786252 0.876306653
   vertex 0.735678732 -0.414326549 0.535826802
  endloop
 endfacet
facet normal 0.945630252 -0.313970804 -0.0848869085
  outer loop
   vertex 0.982287228 0 -0.187381282
   vertex 0.97422266 -0.125612125 0.187381342
   vertex 0.787218392 -0.587516367 -0.187381282
  endloop
 endfacet
facet normal 0.787967563 -0.319012642 0.526628971
  outer loop
   vertex 0.97422266 -0.125612125 0.187381342
   vertex 0.764187396 0.0985310078 0.637423933
   vertex 0.787218392 -0.587516367 0.187381342
  endloop
 endfacet
facet normal -0.214194342 -0.129542723 0.968162954
  outer loop
   vertex 0.0356607661 -0.120152958 0.992114723
   vertex -0.361335993 0.070370242 0.92977649
   vertex -0.434045106 -0.209025085 0.876306653
  endloop
 endfacet
facet normal 0.891608655 -0.0698565543 -0.447385848
  outer loop
   vertex 0.764187396 0.0985310078 -0.637423992
   vertex 0.982287228 0 -0.187381282
   vertex 0.782621682 -0.316848397 -0.535826802
  endloop
 endfacet
facet normal -0.984245062 -0.126939341 0.123077437
  outer loop
   vertex -0.85687232 -0.412647963 0.309016973
   vertex -0.902967989 0.0579724126 0.425779283
   vertex -0.932245374 -0.309526801 -0.187381282
  endloop
 endfacet
facet normal -0.922299623 -0.0592135191 -0.381912559
  outer loop
   vertex -0.932245374 -0.309526801 -0.187381282
   vertex -0.964173019 0.187772706 -0.187381282
   vertex -0.756304324 -0.147290289 -0.637423992
  endloop
 endfacet
facet normal -0.884006739 -0.192299709 0.426090211
  outer loop
   vertex -0.756304324 -0.147290289 0.637423933
   vertex -0.902967989 0.0579724126 0.425779283
   vertex -0.85687232 -0.412647963 0.309016973
  endloop
 endfacet
facet normal 0.644622326 -0.0831148028 0.759969711
  outer loop
   vertex 0.764187396 0.0985310078 0.637423933
   vertex 0.477798462 0.0616053455 0.876306653
   vertex 0.446545541 -0.180786252 0.876306653
  endloop
 endfacet
facet normal -0.59852457 -0.026106691 0.800678968
  outer loop
   vertex -0.434045106 -0.209025085 0.876306653
   vertex -0.649673343 0.215706423 0.72896862
   vertex -0.756304324 -0.147290289 0.637423933
  endloop
 endfacet
facet normal 0.00260339165 -0.146518618 -0.989204466
  outer loop
   vertex -0.0278892815 0.122190915 -0.992114723
   vertex 0.246648192 -0.0318017565 -0.968583167
   vertex -0.210610166 -0.30192554 -0.92977649
  endloop
 endfacet
facet normal 0.266421705 -0.0343512595 0.963244259
  outer loop
   vertex 0.477798462 0.0616053455 0.876306653
   vertex 0.0356607661 -0.120152958 0.992114723
   vertex 0.446545541 -0.180786252 0.876306653
  endloop
 endfacet
facet normal -0.352209359 0.0141919507 -0.935813606
  outer loop
   vertex -0.529576242 -0.255030453 -0.809017003
   vertex -0.0278892815 0.122190915 -0.992114723
   vertex -0.210610166 -0.30192554 -0.92977649
  endloop
 endfacet
facet normal -0.99427104 -0.0638342351 0.085733965
  outer loop
   vertex -0.902967989 0.0579724126 0.425779283
   vertex -0.964173019 0.187772706 -0.187381282
   vertex -0.932245374 -0.309526801 -0.187381282
  endloop
 endfacet
facet normal -0.784113169 0.0749662146 0.616073549
  outer loop
   vertex -0.649673343 0.215706423 0.72896862
   vertex -0.902967989 0.0579724126 0.425779283
   vertex -0.756304324 -0.147290289 0.637423933
  endloop
 endfacet
facet normal -0.190720648 -0.077214241 0.978602886
  outer loop
   vertex 0.0356607661 -0.120152958 0.992114723
   vertex -0.0579714365 0.111120358 0.992114723
   vertex -0.361335993 0.070370242 0.92977649
  endloop
 endfacet
facet normal 0.218241602 0.088356249 0.971886694
  outer loop
   vertex 0.477798462 0.0616053455 0.876306653
   vertex -0.0579714365 0.111120358 0.992114723
   vertex 0.0356607661 -0.120152958 0.992114723
  endloop
 endfacet
facet normal -0.573969781 -0.00733942306 0.818843603
  outer loop
   vertex -0.361335993 0.070370242 0.92977649
   vertex -0.649673343 0.215706423 0.72896862
   vertex -0.434045106 -0.209025085 0.876306653
  endloop
 endfacet
facet normal 0.533955812 0.0269596372 -0.845082462
  outer loop
   vertex 0.246648192 -0.0318017565 -0.968583167
   vertex 0.764187396 0.0985310078 -0.637423992
   vertex 0.512148321 -0.288436532 -0.809017003
  endloop
 endfacet
facet normal 0.455951184 0.30960837 -0.834416687
  outer loop
   vertex 0.246648192 -0.0318017565 -0.968583167
   vertex 0.735678732 0.414326549 -0.535826802
   vertex 0.764187396 0.0985310078 -0.637423992
  endloop
 endfacet
facet normal -0.583352983 0.0621822141 -0.809834957
  outer loop
   vertex -0.756304324 -0.147290289 -0.637423992
   vertex -0.573710799 0.373444349 -0.72896862
   vertex -0.529576242 -0.255030453 -0.809017003
  endloop
 endfacet
facet normal 0.921114087 0.118764363 0.370734274
  outer loop
   vertex 0.97422266 -0.125612125 0.187381342
   vertex 0.910498559 0.368620008 0.187381342
   vertex 0.764187396 0.0985310078 0.637423933
  endloop
 endfacet
facet normal 0.989752173 0.12761426 0.06407208
  outer loop
   vertex 0.982287228 0 -0.187381282
   vertex 0.910498559 0.368620008 0.187381342
   vertex 0.97422266 -0.125612125 0.187381342
  endloop
 endfacet
facet normal -0.961589396 0.232890427 0.145285517
  outer loop
   vertex -0.902967989 0.0579724126 0.425779283
   vertex -0.82324326 0.535871923 0.187381342
   vertex -0.964173019 0.187772706 -0.187381282
  endloop
 endfacet
facet normal 0.248265564 0.301956683 -0.920427263
  outer loop
   vertex -0.0278892815 0.122190915 -0.992114723
   vertex 0.0938104242 0.580250978 -0.809017003
   vertex 0.246648192 -0.0318017565 -0.968583167
  endloop
 endfacet
facet normal 0.224209875 0.19087261 0.955666065
  outer loop
   vertex 0.477798462 0.0616053455 0.876306653
   vertex 0.137072265 0.461841792 0.876306653
   vertex -0.0579714365 0.111120358 0.992114723
  endloop
 endfacet
facet normal -0.399353802 0.088185735 -0.9125458
  outer loop
   vertex -0.573710799 0.373444349 -0.72896862
   vertex -0.0278892815 0.122190915 -0.992114723
   vertex -0.529576242 -0.255030453 -0.809017003
  endloop
 endfacet
facet normal 0.897490144 0.206411511 -0.389750838
  outer loop
   vertex 0.735678732 0.414326549 -0.535826802
   vertex 0.982287228 0 -0.187381282
   vertex 0.764187396 0.0985310078 -0.637423992
  endloop
 endfacet
facet normal -0.237759516 0.592140019 0.769961417
  outer loop
   vertex -0.0579714365 0.111120358 0.992114723
   vertex -0.649673343 0.215706423 0.72896862
   vertex -0.361335993 0.070370242 0.92977649
  endloop
 endfacet
facet normal 0.602457464 0.243907958 0.759969652
  outer loop
   vertex 0.764187396 0.0985310078 0.637423933
   vertex 0.617499888 0.460852057 0.637423933
   vertex 0.477798462 0.0616053455 0.876306653
  endloop
 endfacet
facet normal -0.826067686 0.196820498 -0.528085172
  outer loop
   vertex -0.964173019 0.187772706 -0.187381282
   vertex -0.573710799 0.373444349 -0.72896862
   vertex -0.756304324 -0.147290289 -0.637423992
  endloop
 endfacet
facet normal -0.226008594 0.426347762 -0.875869691
  outer loop
   vertex -0.573710799 0.373444349 -0.72896862
   vertex -0.440823495 0.631953597 -0.637423992
   vertex -0.0278892815 0.122190915 -0.992114723
  endloop
 endfacet
facet normal -0.864251673 0.48673749 -0.127104864
  outer loop
   vertex -0.82324326 0.535871923 0.187381342
   vertex -0.660392582 0.727165639 -0.187381282
   vertex -0.964173019 0.187772706 -0.187381282
  endloop
 endfacet
facet normal 0.820163488 0.332047343 0.465914577
  outer loop
   vertex 0.910498559 0.368620008 0.187381342
   vertex 0.617499888 0.460852057 0.637423933
   vertex 0.764187396 0.0985310078 0.637423933
  endloop
 endfacet
facet normal 0.440468192 0.327877283 -0.835753679
  outer loop
   vertex 0.0938104242 0.580250978 -0.809017003
   vertex 0.735678732 0.414326549 -0.535826802
   vertex 0.246648192 -0.0318017565 -0.968583167
  endloop
 endfacet
facet normal 0.416838229 0.354859501 0.836851597
  outer loop
   vertex 0.617499888 0.460852057 0.637423933
   vertex 0.137072265 0.461841792 0.876306653
   vertex 0.477798462 0.0616053455 0.876306653
  endloop
 endfacet
facet normal 0.896325409 0.42376411 -0.130478784
  outer loop
   vertex 0.735678732 0.414326549 -0.535826802
   vertex 0.649981916 0.629472435 -0.425779283
   vertex 0.982287228 0 -0.187381282
  endloop
 endfacet
facet normal -0.80267781 0.312309265 0.508105576
  outer loop
   vertex -0.649673343 0.215706423 0.72896862
   vertex -0.642910063 0.547317386 0.535826802
   vertex -0.902967989 0.0579724126 0.425779283
  endloop
 endfacet
facet normal -0.791598856 0.445820153 -0.417870343
  outer loop
   vertex -0.964173019 0.187772706 -0.187381282
   vertex -0.660392582 0.727165639 -0.187381282
   vertex -0.573710799 0.373444349 -0.72896862
  endloop
 endfacet
facet normal -0.836634398 0.349832207 0.421497703
  outer loop
   vertex -0.642910063 0.547317386 0.535826802
   vertex -0.82324326 0.535871923 0.187381342
   vertex -0.902967989 0.0579724126 0.425779283
  endloop
 endfacet
facet normal -0.241451576 0.414821148 -0.8772825
  outer loop
   vertex -0.440823495 0.631953597 -0.637423992
   vertex 0.0938104242 0.580250978 -0.809017003
   vertex -0.0278892815 0.122190915 -0.992114723
  endloop
 endfacet
facet normal -0.314376205 0.394215256 0.863575101
  outer loop
   vertex -0.0657323003 0.681383908 0.72896862
   vertex -0.649673343 0.215706423 0.72896862
   vertex -0.0579714365 0.111120358 0.992114723
  endloop
 endfacet
facet normal -0.20497337 0.407791942 0.889770567
  outer loop
   vertex 0.137072265 0.461841792 0.876306653
   vertex -0.0657323003 0.681383908 0.72896862
   vertex -0.0579714365 0.111120358 0.992114723
  endloop
 endfacet
facet normal 0.8950001 0.39155066 -0.213688686
  outer loop
   vertex 0.649981916 0.629472435 -0.425779283
   vertex 0.910498559 0.368620008 0.187381342
   vertex 0.982287228 0 -0.187381282
  endloop
 endfacet
facet normal 0.443071485 0.555594027 -0.703564465
  outer loop
   vertex 0.240234613 0.809430063 -0.535826802
   vertex 0.735678732 0.414326549 -0.535826802
   vertex 0.0938104242 0.580250978 -0.809017003
  endloop
 endfacet
facet normal -0.712976933 0.529348791 -0.459840983
  outer loop
   vertex -0.660392582 0.727165639 -0.187381282
   vertex -0.440823495 0.631953597 -0.637423992
   vertex -0.573710799 0.373444349 -0.72896862
  endloop
 endfacet
facet normal -0.172470763 0.655801654 -0.734968066
  outer loop
   vertex -0.0810749531 0.840426385 -0.535826802
   vertex 0.0938104242 0.580250978 -0.809017003
   vertex -0.440823495 0.631953597 -0.637423992
  endloop
 endfacet
facet normal -0.376405478 0.47199747 0.797205925
  outer loop
   vertex -0.0657323003 0.681383908 0.72896862
   vertex -0.642910063 0.547317386 0.535826802
   vertex -0.649673343 0.215706423 0.72896862
  endloop
 endfacet
facet normal 0.0718540028 0.74484247 -0.663360119
  outer loop
   vertex -0.0810749531 0.840426385 -0.535826802
   vertex 0.240234613 0.809430063 -0.535826802
   vertex 0.0938104242 0.580250978 -0.809017003
  endloop
 endfacet
facet normal 0.431504577 0.541089594 -0.721821189
  outer loop
   vertex 0.240234613 0.809430063 -0.535826802
   vertex 0.649981916 0.629472435 -0.425779283
   vertex 0.735678732 0.414326549 -0.535826802
  endloop
 endfacet
facet normal 0.345822424 0.632714689 0.692877352
  outer loop
   vertex 0.617499888 0.460852057 0.637423933
   vertex 0.469055653 0.773756325 0.425779283
   vertex 0.137072265 0.461841792 0.876306653
  endloop
 endfacet
facet normal 0.728930533 0.585623443 0.354549646
  outer loop
   vertex 0.910498559 0.368620008 0.187381342
   vertex 0.469055653 0.773756325 0.425779283
   vertex 0.617499888 0.460852057 0.637423933
  endloop
 endfacet
facet normal -0.639639378 0.704313755 0.307901889
  outer loop
   vertex -0.642910063 0.547317386 0.535826802
   vertex -0.454345465 0.870895267 0.187381342
   vertex -0.82324326 0.535871923 0.187381342
  endloop
 endfacet
facet normal -0.669844389 0.737572849 0.0854098946
  outer loop
   vertex -0.82324326 0.535871923 0.187381342
   vertex -0.454345465 0.870895267 0.187381342
   vertex -0.660392582 0.727165639 -0.187381282
  endloop
 endfacet
facet normal 0.261458397 0.692655981 0.672210693
  outer loop
   vertex 0.469055653 0.773756325 0.425779283
   vertex -0.0657323003 0.681383908 0.72896862
   vertex 0.137072265 0.461841792 0.876306653
  endloop
 endfacet
facet normal 0.682170749 0.730888426 0.0210991725
  outer loop
   vertex 0.649981916 0.629472435 -0.425779283
   vertex 0.469055653 0.773756325 0.425779283
   vertex 0.910498559 0.368620008 0.187381342
  endloop
 endfacet
facet normal 0.456754863 0.790638447 -0.407757074
  outer loop
   vertex 0.240234613 0.809430063 -0.535826802
   vertex 0.397613525 0.89821595 -0.187381282
   vertex 0.649981916 0.629472435 -0.425779283
  endloop
 endfacet
facet normal -0.572116852 0.820172131 0
  outer loop
   vertex -0.454345465 0.870895267 0.187381342
   vertex -0.454345465 0.870895267 -0.187381282
   vertex -0.660392582 0.727165639 -0.187381282
  endloop
 endfacet
facet normal -0.521208584 0.74719131 -0.412367314
  outer loop
   vertex -0.454345465 0.870895267 -0.187381282
   vertex -0.440823495 0.631953597 -0.637423992
   vertex -0.660392582 0.727165639 -0.187381282
  endloop
 endfacet
facet normal 0.748632371 0.661316752 0.0470078178
  outer loop
   vertex 0.397613525 0.89821595 -0.187381282
   vertex 0.469055653 0.773756325 0.425779283
   vertex 0.649981916 0.629472435 -0.425779283
  endloop
 endfacet
facet normal -0.355403185 0.773002326 0.525505483
  outer loop
   vertex -0.0657323003 0.681383908 0.72896862
   vertex -0.454345465 0.870895267 0.187381342
   vertex -0.642910063 0.547317386 0.535826802
  endloop
 endfacet
facet normal 0.1427214 0.848160684 0.510150969
  outer loop
   vertex 0.156772956 0.969696045 0.187381342
   vertex -0.0657323003 0.681383908 0.72896862
   vertex 0.469055653 0.773756325 0.425779283
  endloop
 endfacet
facet normal -0.350468427 0.822810829 -0.447386026
  outer loop
   vertex -0.454345465 0.870895267 -0.187381282
   vertex -0.0810749531 0.840426385 -0.535826802
   vertex -0.440823495 0.631953597 -0.637423992
  endloop
 endfacet
facet normal -0.144997403 0.896861255 0.417870402
  outer loop
   vertex 0.156772956 0.969696045 0.187381342
   vertex -0.454345465 0.870895267 0.187381342
   vertex -0.0657323003 0.681383908 0.72896862
  endloop
 endfacet
facet normal 0.0920490101 0.954185069 -0.284706593
  outer loop
   vertex -0.0810749531 0.840426385 -0.535826802
   vertex 0.397613525 0.89821595 -0.187381282
   vertex 0.240234613 0.809430063 -0.535826802
  endloop
 endfacet
facet normal -0.031816721 0.99216193 -0.12084043
  outer loop
   vertex -0.454345465 0.870895267 -0.187381282
   vertex 0.397613525 0.89821595 -0.187381282
   vertex -0.0810749531 0.840426385 -0.535826802
  endloop
 endfacet
facet normal 0.456743389 0.880694926 0.125546619
  outer loop
   vertex 0.397613525 0.89821595 -0.187381282
   vertex 0.156772956 0.969696045 0.187381342
   vertex 0.469055653 0.773756325 0.425779283
  endloop
 endfacet
facet normal -0.0320515968 0.999486208 0
  outer loop
   vertex -0.454345465 0.870895267 0.187381342
   vertex 0.397613525 0.89821595 -0.187381282
   vertex -0.454345465 0.870895267 -0.187381282
  endloop
 endfacet
facet normal -0.153249085 0.947900832 -0.27928248
  outer loop
   vertex -0.454345465 0.870895267 0.187381342
   vertex 0.156772956 0.969696045 0.187381342
   vertex 0.397613525 0.89821595 -0.187381282
  endloop
 endfacet
endsolid MATLAB_1
